<svg xmlns="http://www.w3.org/2000/svg" data-name="Layer 1" viewBox="0 0 650 512"><path fill="#dbe8ec" d="M588.90415,254.74915V236.558a13.07945,13.07945,0,0,0-13.07945-13.07945h-46.166a13.07945,13.07945,0,0,1-13.07946-13.07945V192.20793a13.07946,13.07946,0,0,1,13.07946-13.07946h1.45764A13.07945,13.07945,0,0,0,544.19578,166.049V147.85786a13.07945,13.07945,0,0,0-13.07945-13.07945H129.20918a13.07945,13.07945,0,0,0-13.07945,13.07945V166.049a13.07945,13.07945,0,0,0,13.07945,13.07945h0a13.07945,13.07945,0,0,1,13.07945,13.07946v18.19116a13.07945,13.07945,0,0,1-13.07945,13.07945H78.6298A13.07945,13.07945,0,0,0,65.55035,236.558v18.19116A13.07945,13.07945,0,0,0,78.6298,267.82861H98.47638a13.07945,13.07945,0,0,1,13.07945,13.07945v18.19125a13.07945,13.07945,0,0,1-13.07945,13.07945h-.048A13.07945,13.07945,0,0,0,85.349,325.25821v18.19108a13.07945,13.07945,0,0,0,13.07945,13.07945h2.87139a13.07945,13.07945,0,0,1,13.07945,13.07945v18.19125a13.07945,13.07945,0,0,1-13.07945,13.07945H74.1753a13.07945,13.07945,0,0,0-13.07945,13.07945V432.1495A13.07945,13.07945,0,0,0,74.1753,445.229h463.963a13.07945,13.07945,0,0,0,13.07945-13.07945V413.95834a13.07945,13.07945,0,0,0-13.07945-13.07945H526.79779a13.07945,13.07945,0,0,1-13.07945-13.07945V369.60819a13.07945,13.07945,0,0,1,13.07945-13.07945h26.73986a13.07945,13.07945,0,0,0,13.07945-13.07945V325.25821a13.07945,13.07945,0,0,0-13.07945-13.07945H545.426a13.07945,13.07945,0,0,1-13.07945-13.07945V280.90806A13.07945,13.07945,0,0,1,545.426,267.82861H575.8247A13.07945,13.07945,0,0,0,588.90415,254.74915Z"/><rect width="44.85" height="51.36" x="285.15" y="366.162" fill="#ee781d"/><rect width="284.04" height="220.32" x="165.555" y="166.542" fill="#3086a3" rx="13"/><rect width="242.269" height="178.92" x="186.44" y="187.242" fill="#409cb5" rx="8.997"/><rect width="122.93" height="30.24" x="246.11" y="405.582" fill="#3086a3" rx="9.54"/><path fill="#dbe8ec" d="M419.71242,187.24165H195.43776a8.99714,8.99714,0,0,0-8.99731,8.99707V215.9814H428.70986V196.23872A8.99717,8.99717,0,0,0,419.71242,187.24165Z"/><rect width="102.164" height="58.68" x="210.691" y="261.731" fill="#dbe8ec" rx="3"/><line x1="227.933" x2="295.613" y1="276.191" y2="276.191" fill="none" stroke="#3086a3" stroke-miterlimit="10" stroke-width="3"/><line x1="227.933" x2="295.613" y1="291.071" y2="291.071" fill="none" stroke="#3086a3" stroke-miterlimit="10" stroke-width="3"/><line x1="227.933" x2="295.613" y1="305.951" y2="305.951" fill="none" stroke="#3086a3" stroke-miterlimit="10" stroke-width="3"/><circle cx="307.575" cy="201.612" r="6.12" fill="#3086a3"/><path fill="#ee781d" d="M509.69072,286.77825a20.56927,20.56927,0,0,1-2.14247,15.72478,21.04147,21.04147,0,0,1-12.72217,9.60869l-.82879.21752a384.15138,384.15138,0,0,1-10.94517-39.97476l1.25327-.32892a20.73211,20.73211,0,0,1,25.38533,14.75269Zm0,0"/><path fill="#e06714" d="M494.42236,271.97653l4.75808,18.12933a5.547,5.547,0,0,1-3.957,6.77305,5.57413,5.57413,0,0,0-3.92043,6.97777c.87585,2.88135,1.77058,5.71923,2.69433,8.47256l.82879-.21752a21.04147,21.04147,0,0,0,12.72217-9.60869,20.6291,20.6291,0,0,0-13.12589-30.5265Zm0,0"/><path fill="#ee781d" d="M389.06763,350.46224a8.12527,8.12527,0,0,0-9.62765-5.01942l-4.85237,1.28369-.10248.0257-9.14,2.40064a8.044,8.044,0,0,0-5.738,9.75614l1.92553,7.3555h33.29874Z"/><path fill="#3086a3" d="M402.1744,344.61331c1.70932.2189,3.40776.4451,5.10513.66726-.373,3.99236-1.41691,6.50447-3.10651,6.94791-5.02078,1.31771-13.8212-15.712-19.68684-38.06146-5.84984-22.28918-6.54659-41.44576-1.52582-42.76347,1.6896-.44344,3.83259,1.23227,6.09812,4.45077-1.36951,1.02707-2.739,2.05415-4.11525,3.1044Zm0,0"/><path fill="#f9ae2b" d="M518.45744,369.19434c-1.93206-.54558-4.21487-1.286-6.12593-1.75161-2.12974-.71207-4.23482-1.28095-6.39976-1.89824-1.47416-.44753-2.98916-.87154-4.51914-1.28743a701.00834,701.00834,0,0,0-94.13308-18.97649c-1.69737-.22216-3.39581-.44836-5.10513-.66726-5.78957,1.51949-23.02074-64.1351-17.23117-65.65459,1.37623-1.05025,2.74574-2.07733,4.11525-3.1044a701.60685,701.60685,0,0,0,72.68186-62.75739c1.12859-1.11351,2.24008-2.227,3.36866-3.3405,1.51752-1.60517,3.073-3.13046,4.58275-4.78062,1.47521-1.44,2.99672-3.029,4.47619-4.53428-5.76532,12.178-3.04754,47.82425,7.55089,88.20659,5.17211,19.70689,20.95533,69.45751,36.73861,80.54622Zm0,0"/><path fill="#ee781d" d="M404.173,352.22848,358.28531,364.2718l-5.96854-4.26654c-4.47237-6.21287-9.81071-18.84041-13.73443-33.79069-3.90792-14.89-5.50591-28.43068-4.61377-36.12l3.10408-6.64766,45.88771-12.04332c-5.02077,1.31771-4.324,20.47429,1.52582,42.76347,5.86564,22.34942,14.66606,39.37917,19.68684,38.06146Zm0,0"/><path fill="#e06714" d="M405.486,366.26449l-4.76524-13.12989,3.4521-.906c-1.35452.35539-2.98576-.635-4.759-2.69524l-.59013-1.62561a8.03445,8.03445,0,0,0-3.20483-4.031c-3.85764-6.91078-7.93184-17.51372-11.13259-29.70968-5.84992-22.28932-6.54693-41.44589-1.526-42.76373l-3.30323.86718a16.08726,16.08726,0,0,0-11.4742,19.6461l6.00412,22.87788a25.61991,25.61991,0,0,1-18.2731,31.27793l-9.69722,2.54512a83.98105,83.98105,0,0,0,3.84009,7.81871c-3.92533-6.86064-8.19384-17.72152-11.47451-30.22178-3.90778-14.88995-5.50581-28.4307-4.61387-36.12L322.43,314.99163c-1.74971.45914-1.53252,7.27088.57728,15.31053,2.106,8.024,5.283,14.144,7.0327,13.68492l22.27678,16.01818,5.9687,4.26663,32.6898-8.57964,3.85608,10.57224Zm-54.24795-7.867c.09057.1426.18208.29178.272.42936C351.42015,358.68961,351.32864,358.53949,351.23807,358.39752Zm-1.1-1.82116q.30792.5392.61333,1.043C350.54827,357.28527,350.34331,356.933,350.138,356.57636Z"/><path fill="#3086a3" d="M518.59746,369.15759l-.04722.08083-.0928-.04408c-1.93206-.54558-4.21487-1.286-6.12593-1.75161-2.09295-.57193-4.11813-1.16177-6.19025-1.67073-.0959-.039-.11693-.11911-.20951-.22751-7.67794-9.63823-43.04739-142.36539-40.82275-155.78806-.021-.08015.04338-.16118.02657-.22521,1.53828-1.52508,3.01281-3.0333,4.55618-4.55541,1.47521-1.44,2.99672-3.029,4.47619-4.53428-5.006,10.48936,31.72315,159.72991,44.42952,168.71606Zm0,0"/><circle cx="350.751" cy="303.395" r="8.934" fill="#3086a3"/><circle cx="359.348" cy="324.345" r="4.79" fill="#3086a3"/><ellipse cx="136.897" cy="108.498" fill="#f9ae2b" rx="72.095" ry="41.727"/><rect width="18.485" height="18.485" x="173.769" y="129.057" fill="#f9ae2b" transform="rotate(14.945 183.013 138.3)"/><line x1="97.777" x2="176.017" y1="95.964" y2="95.964" fill="none" stroke="#3086a3" stroke-miterlimit="10" stroke-width="3"/><line x1="97.777" x2="176.017" y1="108.498" y2="108.498" fill="none" stroke="#3086a3" stroke-miterlimit="10" stroke-width="3"/><line x1="97.777" x2="176.017" y1="121.033" y2="121.033" fill="none" stroke="#3086a3" stroke-miterlimit="10" stroke-width="3"/><ellipse cx="428.71" cy="127.587" fill="#f9ae2b" rx="41.695" ry="24.133"/><rect width="10.691" height="10.691" x="396.694" y="139.477" fill="#f9ae2b" transform="rotate(165.055 402.04 144.822)"/><circle cx="413.59" cy="127.587" r="5.04" fill="#3086a3"/><circle cx="428.71" cy="127.587" r="5.04" fill="#3086a3"/><circle cx="443.83" cy="127.587" r="5.04" fill="#3086a3"/><path fill="none" stroke="#b9d4db" stroke-linecap="round" stroke-miterlimit="10" stroke-width="3" d="M466.90071 399.93608c3.22911 0 3.22911 3 6.45822 3 3.22736 0 3.22736-3 6.45472-3 3.23017 0 3.23017 3 6.46034 3 3.23238 0 3.23238-3 6.46477-3s3.23239 3 6.46477 3M466.90071 409.24661c3.22911 0 3.22911 3 6.45822 3 3.22736 0 3.22736-3 6.45472-3 3.23017 0 3.23017 3 6.46034 3 3.23238 0 3.23238-3 6.46477-3s3.23239 3 6.46477 3M466.90071 418.55714c3.22911 0 3.22911 3 6.45822 3 3.22736 0 3.22736-3 6.45472-3 3.23017 0 3.23017 3 6.46034 3 3.23238 0 3.23238-3 6.46477-3s3.23239 3 6.46477 3M120.31693 306.33883c3.22911 0 3.22911 3 6.45822 3 3.22736 0 3.22736-3 6.45472-3 3.23017 0 3.23017 3 6.46034 3 3.23239 0 3.23239-3 6.46477-3s3.23239 3 6.46477 3M120.31693 315.64936c3.22911 0 3.22911 3 6.45822 3 3.22736 0 3.22736-3 6.45472-3 3.23017 0 3.23017 3 6.46034 3 3.23239 0 3.23239-3 6.46477-3s3.23239 3 6.46477 3M120.31693 324.95988c3.22911 0 3.22911 3 6.45822 3 3.22736 0 3.22736-3 6.45472-3 3.23017 0 3.23017 3 6.46034 3 3.23239 0 3.23239-3 6.46477-3s3.23239 3 6.46477 3M257.83124 131.59849c3.22911 0 3.22911 3 6.45822 3 3.22736 0 3.22736-3 6.45472-3 3.23017 0 3.23017 3 6.46034 3 3.23238 0 3.23238-3 6.46477-3s3.23238 3 6.46477 3M257.83124 140.909c3.22911 0 3.22911 3 6.45822 3 3.22736 0 3.22736-3 6.45472-3 3.23017 0 3.23017 3 6.46034 3 3.23238 0 3.23238-3 6.46477-3s3.23238 3 6.46477 3M257.83124 150.21954c3.22911 0 3.22911 3 6.45822 3 3.22736 0 3.22736-3 6.45472-3 3.23017 0 3.23017 3 6.46034 3 3.23238 0 3.23238-3 6.46477-3s3.23238 3 6.46477 3"/><circle cx="112.527" cy="238.189" r="16.428" fill="#b9d4db"/><circle cx="92.99" cy="210.974" r="8.557" fill="#b9d4db"/><circle cx="141.615" cy="180.825" r="7.406" fill="#b9d4db"/><circle cx="115.732" cy="191.208" r="4.936" fill="#b9d4db"/><circle cx="136.468" cy="209.341" r="11.833" fill="#b9d4db"/><circle cx="533.686" cy="210.404" r="16.428" fill="#b9d4db"/><circle cx="498.914" cy="218.5" r="8.557" fill="#b9d4db"/><circle cx="498.914" cy="183.861" r="11.833" fill="#b9d4db"/><circle cx="176.487" cy="410.979" r="16.428" fill="#b9d4db"/><circle cx="144.715" cy="427.263" r="8.557" fill="#b9d4db"/><circle cx="136.317" cy="393.657" r="11.833" fill="#b9d4db"/></svg>