<svg xmlns="http://www.w3.org/2000/svg" enable-background="new 0 0 1920 1080" viewBox="0 0 1920 1080"><path fill="none" stroke="#83b8c6" stroke-linecap="round" stroke-linejoin="round" stroke-miterlimit="10" stroke-width="4" d="M1599.42 771.31h-50.84c-1.6-5.85-3.61-11.54-5.96-17.04-2.36-5.5-5.06-10.84-8.04-16l35.33-35.33c3.17-3.16 3.17-8.27 0-11.42l-44.48-44.48c-3.16-3.16-8.27-3.16-11.42 0l-36.15 36.15c-9.17-4.81-19.01-8.93-29.09-11.68v-50.83c0-4.47-3.61-8.08-8.08-8.08h-62.9c-4.46 0-8.07 3.61-8.07 8.08v50.8c-.04.01-.07.01-.11.02-11.7 3.45-22.71 8.04-32.81 14-.03.02-.05.04-.08.06l-35.54-35.54c-3.15-3.16-8.27-3.16-11.42 0l-44.48 44.49c-3.16 3.15-3.16 8.27 0 11.42l36.46 36.46-.01.01c-5.05 9.19-8.95 18.82-11.7 28.92h-50.95c-4.46 0-8.08 3.62-8.08 8.08v62.9c0 4.46 3.62 8.08 8.08 8.08h50.93c.01.03.01.06.02.09 2.75 10.09 6.87 19.71 11.68 28.88l-2.49 2.49h256c5.76-9.69 10.09-20.22 13.37-31.37.01-.03.01-.06.02-.09h50.82c4.47 0 8.08-3.62 8.08-8.08v-62.9C1607.5 774.93 1603.89 771.31 1599.42 771.31zM1409.31 879.58c-37.91 0-68.8-30.58-68.8-68.8 0-37.91 30.89-68.81 68.8-68.81 37.91 0 68.8 30.9 68.8 68.81C1478.11 849 1447.21 879.58 1409.31 879.58zM815.24 636.02h-65.8c0-.01 0-.01 0-.01-4.16-15.15-10.4-29.4-18.12-42.76l45.74-45.73c4.08-4.09 4.08-10.71 0-14.79l-57.57-57.57c-4.09-4.08-10.71-4.08-14.79 0l-46.79 46.79c-11.86-6.23-24.6-11.56-37.65-15.12v-65.79c0-5.78-4.68-10.46-10.45-10.46h-81.42c-5.77 0-10.46 4.68-10.46 10.46v65.75c-.04.02-.09.02-.14.03-15.14 4.46-29.4 10.4-42.46 18.12-.04.02-.07.05-.11.07l-45.99-45.99c-4.08-4.08-10.7-4.08-14.78 0l-57.57 57.57c-4.08 4.09-4.08 10.71 0 14.79l47.19 47.19c-.01.01-.02.01-.02.02-6.53 11.88-11.58 24.35-15.14 37.42 0 0 0 0 0 .01h-65.96c-5.77 0-10.45 4.68-10.45 10.45v81.42c0 5.77 4.68 10.45 10.45 10.45h65.93c.01.04.01.09.03.13 3.56 13.05 8.89 25.5 15.12 37.36l-47.15 47.15c-4.08 4.09-4.08 10.71 0 14.79l44.07 44.07h41.78l32.6-32.6c13.07 8.02 27.32 13.96 42.46 18.41.05.02.1.02.14.03v14.16h102.33v-14.19c13.3-3.85 26-8.87 37.83-15.06l29.25 29.25h49.51l40.21-40.21c4.08-4.08 4.08-10.7 0-14.78l-45.99-45.99c7.99-13.05 13.93-27.28 18.37-42.39.01-.04.01-.09.02-.13h65.78c5.78 0 10.46-4.68 10.46-10.45v-81.42C825.7 640.7 821.02 636.02 815.24 636.02zM569.17 776.14c-49.06 0-89.05-39.58-89.05-89.05 0-49.06 39.99-89.05 89.05-89.05s89.06 39.99 89.06 89.05C658.23 736.56 618.23 776.14 569.17 776.14z"/><path fill="#d7ecf2" d="M1529.48,881.83c0,0,12.27-123.29-150.79-83.61c0,0,89.68-123.9,0-241.59   c-89.68-117.68-242.04-49.54-242.04-49.54s7.06-136.28-128.69-161.36c-135.74-25.07-220.08,55.47-243.64,126.72   c0,0-92.46-53.31-190.82,32.98s-50.14,220.48-50.14,220.48s-77.14-11.58-104.14,70.79s0,85.12,0,85.12H1529.48z"/><path fill="#fff" d="M936.56,235.2h96.4c7.07,0,12.81-5.73,12.81-12.8v-8.81h75.31c13.57,0,24.56,11.92,24.56,26.62V837.9      c0,14.7-10.99,26.61-24.56,26.61H848.44c-13.57,0-24.56-11.91-24.56-26.61V240.21c0-14.7,10.99-26.62,24.56-26.62h75.31v8.81      C923.75,229.47,929.48,235.2,936.56,235.2z"/><path fill="#ffc466" d="M1032.96,235.2h-96.4c-7.08,0-12.81-5.73-12.81-12.8v-8.81h122.02v8.81      C1045.77,229.47,1040.03,235.2,1032.96,235.2z"/><rect width="122.02" height="8.1" x="923.75" y="205.49" fill="#ffc466"/><path fill="#ffc466" d="M841.32,198.16h286.87c13.57,0,24.57,11.92,24.57,26.62v629.84c0,14.7-11,26.61-24.57,26.61H841.32      c-13.57,0-24.57-11.91-24.57-26.61V224.78C816.75,210.08,827.75,198.16,841.32,198.16z M1045.77,205.49H923.75v8.1h-75.31      c-13.57,0-24.56,11.92-24.56,26.62V837.9c0,14.7,10.99,26.61,24.56,26.61h272.64c13.57,0,24.56-11.91,24.56-26.61V240.21      c0-14.7-10.99-26.62-24.56-26.62h-75.31V205.49z"/><path fill="#ffc466" d="M1152.59 359.23L1152.59 359.23c-1.18 0-2.14-.96-2.14-2.14v-76.29c0-1.18.96-2.14 2.14-2.14l0 0c1.18 0 2.14.96 2.14 2.14v76.29C1154.73 358.28 1153.77 359.23 1152.59 359.23zM1152.59 405.15L1152.59 405.15c-1.18 0-2.14-.96-2.14-2.14v-28.14c0-1.18.96-2.14 2.14-2.14l0 0c1.18 0 2.14.96 2.14 2.14V403C1154.73 404.19 1153.77 405.15 1152.59 405.15z"/><path fill="none" stroke="#ffc466" stroke-miterlimit="10" stroke-width=".5" d="M955.12,526.98c0,0,26.21,0.7,29.72-11.07c2.82-9.48-8.49-10.47-9.78-2.16c-0.77,4.97,0.05,15.76,17.3,16.48   s16.89-25.68,5.68-29.56s-15.45,17.44,1.87,18.12c10.49,0.41,22.66-11.05,15.7-16.39c-7.1-5.46-12.94,6.17,0,12.93   c12.94,6.77,17.95,3.66,16.97-1.86c-1.65-9.21-12.51-3.33-14.23,10.41c-1.73,13.74-55.21,6.57-55.21,6.57s10.77-11.02,2.44-21.01   c-5.4-6.47-12.05,3.07-5.89,6.57c5.17,2.94,14.36,1.97,13.8-7.4c-0.87-14.62-31.34-11.97-21.85,16.79   C961.11,554.15,955.12,526.98,955.12,526.98z"/><polygon fill="#ffc0a1" points="717.5 752.54 736.25 793.38 767.84 789.56 758.72 730.77 718.38 725.92"/><path fill="#dbdbdb" d="M769.9,789.62l-12.74,6.31l-3.16,1.56l-3.63-0.78l-15.73-3.38l-4.93-9.53c-0.01-0.01-0.01-0.01-0.01-0.01    l0-0.01l-1.43-2.76c-0.49-0.94-0.01-2.09,0.99-2.42l34.98-11.27c1-0.32,2.04,0.33,2.21,1.36l0.83,5.04L769.9,789.62z"/><path fill="#c4c4c4" d="M769.9,789.62l-12.74,6.31l-6.78,0.78l-15.73-3.38l-4.93-9.53c0.45,0.39,14.57,12.34,37.57-10.06    L769.9,789.62z"/><path fill="#ffc0a1" d="M838.24,766.66l6.96,50.92c0,0-23.73,16.28-37.11-8.99l-14.53-67.34L838.24,766.66z"/><path fill="#dbdbdb" d="M844.49,812.33c0,0-27.46,6.99-37.38-2.24c0,0-2.16-5.09-3.14-9.25c-0.6-2.53-0.76-4.72,0.27-5.21    c0,0,37.14-3.19,39.14-2.62c0.95,0.27,1.24,4.65,1.29,9.17l0.01,0C844.73,807.17,844.49,812.33,844.49,812.33z"/><path fill="#c4c4c4" d="M844.49,812.33c0,0-27.46,6.99-37.38-2.24c0,0-2.16-5.09-3.14-9.25c0,0,36.37,11.05,40.71,1.34l0.01,0    C844.73,807.17,844.49,812.33,844.49,812.33z"/><path fill="#4f4f4f" d="M700.5,838.8c0,0-4.69,1.82-1.76,9.83s21.39,12.97,39.24,2.45c17.85-10.52,45.23-34.21,46.64-37.16    c1.42-2.95-5.13-15.17-8.35-20.61c-3.23-5.45-25.82,19.67-25.82,19.67S719.27,848.84,700.5,838.8z"/><path fill="#ffa300" d="M776.94,800.22c-2.5,7.19-40.24,45.18-56.18,44.79c-15.95-0.41-20.25-6.21-20.25-6.21s3.36-2.92,7.82-7.56    c9.38-9.75,23.66-27.18,22.03-41.39c-0.11-0.97,0.81-1.73,1.73-1.41c2.79,0.93,8.08,2.36,14.46,2.31c0-0.02,0-0.02,0-0.02    c1.89-0.03,3.86-0.17,5.91-0.52c4.99-0.8,10.34-2.71,15.49-6.44c0.54-0.39,1.27-0.34,1.73,0.14    C772.1,786.42,778.99,794.25,776.94,800.22z"/><path fill="#e28a17" d="M752.45,790.21c-4.6,9.09-20,37.46-31.14,41.9c-5.65,2.25-9.32,1.59-12.99-0.87    c9.38-9.75,23.66-27.18,22.03-41.39c-0.11-0.97,0.81-1.73,1.73-1.41c2.79,0.93,8.08,2.36,14.46,2.31c0-0.02,0-0.02,0-0.02    C748.43,790.7,750.41,790.55,752.45,790.21z"/><path fill="none" stroke="#fff" stroke-linecap="round" stroke-linejoin="round" stroke-miterlimit="10" stroke-width="3" d="M729.85 797.48c3.62-.76 10.23-1.32 17.61 2.06M726.43 806.88c3.68-.55 9.29-.62 15.47 2.07M721.05 815.9c3.78-.3 8.87.07 14.36 2.65M715.15 823.63c3.58-.48 8.8-.43 14.54 1.95"/><path fill="#ffc176" d="M854.74,492.64l12.28-9.92c0,0-7.43-6.37-12.38-10.27L854.74,492.64z"/><polygon fill="#ffcd97" points="607.27 398.05 577.24 411.48 589.09 438.35 643.86 414.01"/><path fill="#515151" d="M831.68,460.43c-0.87,0.53-2.38,0.91-4.4,1.18c-7.08,0.95-20.45,0.47-34.69-0.43    c-18.79-1.2-39.11-3.15-48.6-3.64c-8.18-0.42-13.65-1.28-17.22-2.13c-4.62-1.09-6.06-2.14-6.06-2.14l12.29-6.22l9.83-4.97    l4.75-0.17l53.3-1.93l25.96,17.24L831.68,460.43z"/><path fill="#27aae1" d="M853.84,780.08c-1.13,0.18-2.26,0.36-3.37,0.52c-2.24,0.34-4.43,0.64-6.58,0.91    c-1.07,0.14-2.12,0.27-3.16,0.39c-0.53,0.06-1.07,0.12-1.59,0.17c-1.52,0.17-3.02,0.32-4.5,0.46c-1.15,0.1-2.27,0.2-3.37,0.29    c-0.38,0.03-0.78,0.07-1.16,0.09c-0.49,0.04-0.97,0.08-1.45,0.11l-0.01,0c-2.28,0.17-4.48,0.3-6.61,0.4    c-0.92,0.04-1.82,0.08-2.7,0.11c-0.99,0.04-1.95,0.08-2.9,0.1c-0.77,0.02-1.52,0.04-2.25,0.05c-1.14,0.03-2.25,0.04-3.33,0.05    c-1.25,0.01-2.46,0-3.63,0c-0.43,0-0.85,0-1.26-0.02c-0.44-0.01-0.88-0.01-1.3-0.02c-0.43-0.01-0.85-0.01-1.27-0.03    c-2.77-0.06-5.25-0.17-7.41-0.28c-0.04,0-0.08-0.01-0.11,0c-0.4-0.03-0.78-0.05-1.16-0.07c-0.03-0.01-0.06-0.01-0.09-0.01    c-0.61-0.04-1.19-0.08-1.74-0.12c-0.1,0-0.2-0.01-0.3-0.02c-0.23-0.02-0.47-0.04-0.69-0.05c-0.39-0.03-0.76-0.06-1.12-0.09    l-0.02,0c-0.06-0.01-0.12-0.01-0.19-0.02l-0.09,0c-0.15-0.01-0.3-0.03-0.44-0.04c-0.08-0.01-0.15-0.01-0.22-0.02    c-2.39-0.22-4.32-2-4.74-4.36c-0.05-0.29-0.09-0.59-0.13-0.9c-0.06-0.36-0.11-0.74-0.17-1.12c-0.05-0.38-0.11-0.75-0.16-1.15    c-0.11-0.78-0.22-1.59-0.33-2.42c-0.05-0.36-0.1-0.74-0.15-1.12c-0.05-0.48-0.12-0.97-0.19-1.47c-0.14-1.1-0.27-2.25-0.41-3.43    c-0.14-1.2-0.28-2.44-0.42-3.72c-2.38-21.45-4.95-53.71-7.31-87.64c-0.01-0.04-0.01-0.08-0.01-0.11c0-0.05-0.01-0.09-0.01-0.13    c0-0.03-0.01-0.05,0-0.09c-0.01-0.05-0.01-0.07-0.01-0.07c-5.03-71.79-9.25-150.89-9.25-150.89s-36.19,51.33-38.04,58.06    c-0.05,0.2-0.06,0.53-0.02,0.98c0.01,0.12,0.02,0.24,0.04,0.38c0.04,0.42,0.12,0.93,0.23,1.53c0.03,0.16,0.06,0.32,0.09,0.5    c0.11,0.6,0.25,1.27,0.42,2.01c0.05,0.24,0.11,0.5,0.17,0.76c0.15,0.67,0.32,1.39,0.51,2.16c0.06,0.24,0.12,0.48,0.18,0.73    c0.62,2.45,1.38,5.34,2.27,8.58c0.27,0.97,0.55,1.98,0.84,3.02c0.03,0.09,0.06,0.2,0.08,0.29c0.23,0.82,0.47,1.65,0.71,2.5    c0.55,1.95,1.14,3.98,1.76,6.1c0.22,0.74,0.44,1.49,0.66,2.25c1.12,3.81,2.32,7.86,3.6,12.08c0.63,2.1,1.28,4.24,1.94,6.42    c0.18,0.62,0.37,1.22,0.56,1.84c0.81,2.65,1.65,5.37,2.49,8.11c0.59,1.93,1.19,3.88,1.81,5.85c0.61,1.97,1.22,3.94,1.84,5.93    c0.02,0.04,0.03,0.09,0.04,0.13c0.58,1.86,1.16,3.74,1.75,5.61c0.02,0.08,0.05,0.16,0.07,0.24c0.47,1.49,0.94,3,1.41,4.5    c0.47,1.5,0.94,3,1.42,4.5c0.02,0.05,0.04,0.1,0.05,0.15c0.2,0.62,0.4,1.25,0.59,1.87c0.11,0.32,0.21,0.65,0.3,0.97    c0.63,1.99,1.25,3.98,1.88,5.96c0.16,0.5,0.31,0.99,0.47,1.48c0.16,0.5,0.31,0.99,0.47,1.48c0.52,1.66,1.05,3.3,1.57,4.93    c0.39,1.22,0.77,2.43,1.16,3.63c3.83,12.05,7.46,23.35,10.49,32.73c0.24,0.75,0.48,1.49,0.71,2.21c0.79,2.44,1.53,4.74,2.22,6.86    c0.02,0.07,0.04,0.14,0.06,0.21l0.01,0.01c0.09,0.29,0.18,0.58,0.28,0.85c0.01,0.02,0.01,0.06,0.03,0.08    c0.04,0.12,0.07,0.23,0.11,0.35c0.04,0.1,0.07,0.21,0.11,0.32c0.1,0.32,0.2,0.62,0.3,0.92c0.06,0.19,0.12,0.37,0.18,0.56    c0.04,0.1,0.06,0.19,0.09,0.28c0.04,0.12,0.08,0.24,0.11,0.35c0.08,0.25,0.16,0.48,0.23,0.72c0.08,0.25,0.16,0.48,0.23,0.72    c0.11,0.34,0.21,0.66,0.32,0.99c0.07,0.22,0.15,0.44,0.21,0.66c0.14,0.41,0.27,0.81,0.39,1.2c0.07,0.21,0.14,0.43,0.21,0.63    c0.11,0.33,0.21,0.65,0.31,0.96c0.01,0.02,0.01,0.04,0.02,0.06c0.06,0.19,0.13,0.38,0.18,0.57c0.1,0.32,0.21,0.64,0.31,0.94    c0.16,0.47,0.3,0.91,0.43,1.32c0.04,0.14,0.09,0.28,0.13,0.41c0.03,0.06,0.05,0.13,0.06,0.19c0.02,0.06,0.04,0.13,0.06,0.18    c0.01,0.05,0.03,0.09,0.03,0.13c0.02,0.04,0.03,0.08,0.04,0.12c0.01,0.04,0.03,0.08,0.04,0.12c0.02,0.06,0.04,0.12,0.06,0.18    c0.1,0.3,0.18,0.57,0.26,0.81c0.32,1.06-0.03,2.19-0.86,2.92c-1.85,1.54-3.82,3-5.88,4.38c-0.28,0.19-0.56,0.37-0.84,0.55    c-0.32,0.22-0.65,0.42-0.97,0.62c-0.05,0.04-0.1,0.06-0.14,0.09c-0.53,0.33-1.06,0.66-1.6,0.98c-0.5,0.3-1.01,0.6-1.53,0.89    c-0.48,0.28-0.96,0.55-1.44,0.81c-0.29,0.16-0.59,0.32-0.88,0.48c-0.49,0.27-0.98,0.52-1.47,0.77c-0.51,0.26-1.03,0.53-1.55,0.79    c-0.02,0.01-0.03,0.02-0.06,0.03c-0.58,0.29-1.17,0.57-1.76,0.85c-0.6,0.29-1.2,0.56-1.8,0.83c-0.6,0.27-1.21,0.54-1.81,0.8    c-0.6,0.26-1.21,0.52-1.81,0.77c-0.6,0.25-1.21,0.5-1.82,0.75l-0.01,0c-0.65,0.26-1.3,0.51-1.95,0.76    c-0.41,0.16-0.82,0.31-1.23,0.46c-0.52,0.2-1.05,0.4-1.58,0.58c-0.53,0.19-1.05,0.38-1.58,0.57c-1.57,0.55-3.13,1.07-4.67,1.56    c-0.51,0.16-1.03,0.33-1.54,0.48c-1.02,0.32-2.02,0.62-3.02,0.9c-0.73,0.22-1.45,0.42-2.17,0.62c-0.02,0-0.03,0.01-0.05,0.01    c-0.11,0.03-0.23,0.06-0.34,0.09c-0.42,0.12-0.83,0.23-1.24,0.34c-0.43,0.11-0.86,0.23-1.29,0.33c-0.04,0.01-0.08,0.02-0.12,0.03    c-3.12,0.82-6.04,1.5-8.65,2.05c-0.24,0.05-0.48,0.1-0.72,0.16c-0.46,0.1-0.93,0.2-1.38,0.28c-0.51,0.11-1.01,0.21-1.49,0.3    c-1.03,0.2-1.98,0.38-2.86,0.54c-0.32,0.06-0.64,0.11-0.94,0.16c-0.24,0.05-0.47,0.09-0.7,0.13c-0.13,0.02-0.25,0.04-0.37,0.06    c-0.24,0.04-0.48,0.08-0.7,0.12c-0.34,0.05-0.64,0.1-0.93,0.15c-0.15,0.03-0.29,0.05-0.42,0.06c-1.15,0.12-2.27-0.51-2.76-1.57    c-0.12-0.25-0.23-0.51-0.36-0.77c-0.2-0.44-0.41-0.91-0.62-1.38c-0.03-0.07-0.07-0.15-0.09-0.22c-0.12-0.27-0.24-0.55-0.36-0.83    c-0.07-0.15-0.14-0.3-0.2-0.46c-0.12-0.29-0.25-0.59-0.37-0.9c-1.28-3.05-2.58-6.48-3.92-10.23c-3.33-9.34-6.83-20.67-10.33-33.14    c-0.01-0.02-0.01-0.03-0.01-0.03c-3.33-11.83-6.69-24.68-9.93-37.81c0,0,0-0.02-0.01-0.05c-13.41-54.38-24.8-113.42-24.75-124.2    c0.04-8.5,17.92-36.41,36.87-63.62c0.03-0.05,0.06-0.09,0.08-0.12c0.02-0.04,0.05-0.07,0.07-0.1    c11.35-16.28,23.04-32.29,31.53-43.72c2.35-3.17,4.45-5.99,6.23-8.36c3.9-5.2,6.25-8.27,6.25-8.27l13.71-0.35l71.85-1.85    l2.05,20.64l0.43,4.39l29.42,297.03l1.55,15.72C858.52,777.13,856.6,779.63,853.84,780.08z"/><path fill="#636363" d="M853.84,780.08c-1.13,0.18-2.26,0.36-3.37,0.52c-2.24,0.34-4.43,0.64-6.58,0.91    c-1.07,0.14-2.12,0.27-3.16,0.39c-0.53,0.06-1.07,0.12-1.59,0.17c-1.52,0.17-3.02,0.32-4.5,0.46c-1.15,0.1-2.27,0.2-3.37,0.29    c-0.38,0.03-0.78,0.07-1.16,0.09c-0.49,0.04-0.97,0.08-1.45,0.11l-0.01,0c-2.28,0.17-4.48,0.3-6.61,0.4    c-0.92,0.04-1.82,0.08-2.7,0.11c-0.99,0.04-1.95,0.08-2.9,0.1c-0.77,0.02-1.52,0.04-2.25,0.05c-1.14,0.03-2.25,0.04-3.33,0.05    c-1.25,0.01-2.46,0-3.63,0c-0.43,0-0.85,0-1.26-0.02c-0.44-0.01-0.88-0.01-1.3-0.02c-0.43-0.01-0.85-0.01-1.27-0.03    c-2.77-0.06-5.25-0.17-7.41-0.28c-0.04,0-0.08-0.01-0.11,0c-0.2-0.01-0.4-0.03-0.59-0.04l-0.05,0c-0.2-0.01-0.41-0.02-0.6-0.04    c-0.61-0.04-1.19-0.08-1.74-0.12c-0.12,0-0.23-0.02-0.34-0.03c-0.22-0.02-0.44-0.03-0.65-0.04c-0.39-0.03-0.76-0.06-1.12-0.09    l-0.02,0c-0.06-0.01-0.12-0.01-0.19-0.02l-0.09,0c-0.15-0.01-0.3-0.03-0.44-0.04c-0.08-0.01-0.15-0.01-0.22-0.02    c-2.39-0.22-4.32-2-4.74-4.36c-0.05-0.29-0.09-0.59-0.13-0.9c-0.06-0.36-0.11-0.74-0.17-1.12c-0.05-0.38-0.11-0.75-0.16-1.15    c-0.11-0.78-0.22-1.59-0.33-2.42c-0.05-0.36-0.1-0.74-0.15-1.12c-0.05-0.48-0.12-0.97-0.19-1.47c-0.14-1.1-0.27-2.25-0.41-3.43    c-0.14-1.2-0.28-2.44-0.42-3.72c0,0,3.52,0.07,9.13,0.07c11.01,0,30.1-0.3,46.61-1.97c6.58-0.67,12.75-1.55,17.84-2.72l1.55,15.72    C858.52,777.13,856.6,779.63,853.84,780.08z"/><path d="M853.84,780.08c-1.13,0.18-2.26,0.36-3.37,0.52c-2.24,0.34-4.43,0.64-6.58,0.91    c-1.07,0.14-2.12,0.27-3.16,0.39c-0.53,0.06-1.07,0.12-1.59,0.17c-1.52,0.17-3.02,0.32-4.5,0.46c-1.15,0.1-2.27,0.2-3.37,0.29    c-0.38,0.03-0.78,0.07-1.16,0.09c-0.49,0.04-0.97,0.08-1.45,0.11c5.9-0.63,8.98-7.96,10.21-21.67    c2.86-32.01-4.36-98.82-9.36-196.4c-3.2-62.45-12.2-86.95-12.2-86.95c-4.69-8.05-13.89-13.36-24.7-16.83    c-27.65-8.89-65.82-5.76-65.82-5.76l20.81-13.5l5.37-3.48l71.85-1.85l2.05,20.64l4.84,3.22c-0.87,0.53-2.38,0.91-4.4,1.18    l29.42,297.03l1.55,15.72C858.52,777.13,856.6,779.63,853.84,780.08z" opacity=".12"/><path fill="#ffc0a1" d="M854.84,480.34c-0.39,1.99-0.99,3.78-1.72,5.38c-3.96,8.64-11.91,11.91-11.91,11.91    c-4.18,7.13-9.78,11.57-14.13,14.19c-8.35-6.31-11.81-12.81-12.67-18.7c-0.63-4.19,0.07-8.08,1.24-11.37    c15.71-9.66,17.28-17.58,17.28-17.58S857.3,467.65,854.84,480.34z"/><path fill="#ffac88" d="M853.59,483.62l-0.46,2.1c-3.96,8.64-11.91,11.91-11.91,11.91c-4.18,7.13-9.78,11.57-14.13,14.19    c-8.35-6.31-11.81-12.81-12.67-18.7c6.7,15.87,23.05,1.54,23.05,1.54c5.54-0.32,1.1-8.53,1.1-8.53L853.59,483.62z"/><path fill="#ffa300" d="M854.75,492.63l-0.01,0.02c-5.09-1.27-11.18-2.76-16.18-6.53l-0.01,0c-1.24-0.93-2.41-2-3.49-3.24    c-4.47-5.15-6.23-9.4-7.61-12.94c2.13-3.11,4.74-7.64,7.52-12.86c0-0.01,0.01-0.01,0.01-0.01c1.58-2.96,3.21-6.14,4.85-9.39    c2.91-5.8,5.8-11.87,8.33-17.42c0,0,0.01-0.02,0.03-0.05c3.94-8.58,7.04-15.93,8.09-19.21l-1.16-1.02    c-0.02-0.01-0.02-0.02-0.04-0.03l-23.75-20.83l-5.66-4.97l-1.02-45.3l-28.93,49.84l-53.07-2.45l-11.09-0.51l-111.25,41.14    c0,0-4.86-5.71-8.61-13.93c-0.86-1.88-1.67-3.9-2.34-6.01c0-0.01,0-0.01,0-0.02c-1.35-4.22-2.2-8.82-1.94-13.49    c0,0,5.01-2.37,13.27-6.43c0.02-0.01,0.03-0.02,0.03-0.02c0.01,0,0.02-0.01,0.03-0.01c0.02-0.01,0.02-0.01,0.04-0.02    c0.04-0.01,0.09-0.04,0.14-0.07c0.02-0.01,0.06-0.03,0.09-0.04c15.83-7.79,43.26-21.65,70.18-37c0.04-0.02,0.08-0.04,0.12-0.07    c13.12-7.47,26.12-15.3,37.6-22.95c0,0,3.74-0.5,9.48-1.05c9.44-0.91,24.27-1.93,36.65-1.02c19.87,1.47,28.8-2.55,28.8-2.55    s20.12,0.03,33.3,3.52c2.57,0.69,4.88,1.5,6.72,2.47c0,0,56.21,71.77,57.55,78.54C904.58,420.99,855.49,491.57,854.75,492.63z"/><path fill="#fff" d="M607.43 393.42c0 0 5.01-2.37 13.27-6.43-.71.49-13.12 9.22-11.33 19.92C608.01 402.69 607.17 398.09 607.43 393.42zM738.39 325.76c-.76 2.95-2.54 6.53-5.93 10.88 0 0-15.92-.77-41.14 13.12 13.12-7.47 26.12-15.3 37.6-22.95C728.92 326.8 732.66 326.3 738.39 325.76z" opacity=".22"/><path fill="#ef9818" d="M742.66 386.25l-11.09-.51-111.25 41.14c0 0-4.86-5.71-8.61-13.93 18.12 9.31 70.5-13.09 99.14-27.9 27.07-14 25.54-30.79 25.29-32.6L742.66 386.25zM854.74 492.64c-5.09-1.27-11.18-2.76-16.18-6.53 28.34 3.92 55.7-72.22 50.6-80.1-5.11-7.87-37.23-55.34-47.78-61.12-7.04-3.85-9.05 5.14-9.05 5.14l-4.72-19.12 9.53-5.19c2.57.69 4.88 1.5 6.72 2.47 0 0 56.21 71.77 57.55 78.54C904.61 421.1 854.74 492.64 854.74 492.64z"/><path d="M792.84,269.45c0.22,0.05,0.44,0.1,0.65,0.16C793.22,269.56,793.01,269.51,792.84,269.45z" opacity=".12"/><path fill="#e58f05" d="M770.46,319.51l-6.66,4.88l14.62,26.77l2.5-7.79l5.1,1.94l5.46-2.16l2.46,7.31c0,0,12.2-24.42,16.77-28.09    l-4.25-3.23c-2.49-1.89-5.55-2.88-8.67-2.8l-19.6,0.53C775.41,316.93,772.71,317.86,770.46,319.51z"/><path fill="#515151" d="M771.71 288.33c0 0-.63 5.31-.64 5.71-.01.4 2.52 1.33 2.52 1.33l1.93-1.53-.69-8.33L771.71 288.33zM801.52 289.32c0 0-.63 5.31-.64 5.71-.01.4 2.52 1.33 2.52 1.33l1.93-1.53-.69-8.33L801.52 289.32z"/><path fill="#ffc0a1" d="M802.35,320.55c0,0-0.04,0.04-0.12,0.11c-1.28,1.18-12.1,11.31-16,20.81c0,0-7.77-14.02-12.23-19.28    c0,0,2.48-6.41,3.72-12.9c0.35-1.79,0.6-3.55,0.68-5.1c0.05-0.9,0.04-1.73-0.05-2.47c-0.42-3.65,5.69-1.55,11.25,1.05    c1.35,0.63,2.67,1.29,3.85,1.91c2.76,1.44,4.79,2.64,4.79,2.64s0.31,1.94,1.46,5.69C800.33,315.02,801.18,317.54,802.35,320.55z"/><path fill="#ffac88" d="M802.35,320.55c0,0-0.04,0.04-0.12,0.11c-2.95,0.43-7.14,0.59-11.85-0.55    c-9.16-2.22-12.66-10.82-12.66-10.82l8.65-6.63l3.23,0.11c1.35,0.63,2.67,1.29,3.85,1.91c2.76,1.44,4.79,2.64,4.79,2.64    s0.31,1.94,1.46,5.69C800.33,315.02,801.18,317.54,802.35,320.55z"/><path fill="#ffc0a1" d="M803.01,297.73c-0.21,6.46-5.83,11.96-10.88,14.61c-2.36,1.24-5.2,1.15-7.47-0.25    c-4.86-2.98-11.33-8.99-11.11-15.45c0.31-9.29,1.97-22.66,16.1-22.19C803.76,274.92,803.32,288.44,803.01,297.73z"/><path fill="#ffc0a1" d="M803.36 292.95c0 0 2.45-2.11 3.9.13 1.45 2.24.1 7.95-4.61 9.81-4.72 1.87-6.21.87-6.21.87L803.36 292.95zM773.9 291.98c0 0-2.31-2.26-3.9-.13s-.63 7.92 3.96 10.09 6.13 1.27 6.13 1.27L773.9 291.98z"/><path fill="#515151" d="M801.82 289.88c0 0 .79 3.72-.65 5.84l1.99-2.44.38-2.15.4-1.73L801.82 289.88zM775.67 289.02c0 0-1.48 3.28-.83 5.36 0 0-.85-2.74-1.85-3.4-1-.66.11-3.24.11-3.24L775.67 289.02z"/><path fill="#ffa300" d="M806.57,290.32l-36.01-1.19c0,0-0.16-2.72,0.49-6.23c0.77-4.18,2.67-9.48,7.33-12.65    c1.88-1.27,3.96-2.1,6.12-2.54c0.02-0.01,0.02-0.01,0.02-0.01c2.87-0.6,5.87-0.5,8.65,0.11c0.02,0.01,0.04,0.02,0.05,0.02    c0.24,0.05,0.48,0.11,0.71,0.18c0.12,0.03,0.25,0.05,0.36,0.09c0.89,0.25,1.75,0.55,2.57,0.91c0.02,0,0.03,0.01,0.05,0.02    c3,1.3,5.45,3.26,6.75,5.61c1.65,3,2.41,6.5,2.74,9.42C806.8,287.6,806.57,290.32,806.57,290.32z"/><path fill="#e8e8e8" d="M808.15,285.27l-0.13,3.96c-0.02,0.63-0.55,1.12-1.18,1.1l-36.64-1.21c-0.63-0.02-1.12-0.55-1.1-1.18    l0.13-3.96c0.02-0.63,0.55-1.13,1.18-1.11l36.64,1.21C807.68,284.1,808.17,284.63,808.15,285.27z"/><path fill="#e8e8e8" d="M791.75,283.65l0.49-14.88l0.04-1.1c0.02-0.67-0.53-1.23-1.24-1.26l-2.44-0.08c-0.71-0.02-1.3,0.5-1.32,1.17    l-0.53,15.99c-0.02,0.67,0.53,1.23,1.24,1.26l2.44,0.08C791.13,284.84,791.72,284.32,791.75,283.65L791.75,283.65z"/><circle cx="789.14" cy="286.62" r="4.94" fill="#eaeaea"/><circle cx="789.14" cy="286.62" r="2.51" fill="#ffe000"/><path d="M808.15,285.27l-0.13,3.96c-0.02,0.63-0.55,1.12-1.18,1.1l-8.9-0.29l0.21-6.24c0,0,1.76-0.69,2.21-4.17    c0.39-3.02,1.54-8.12-3.44-10.6c3,1.3,5.45,3.26,6.75,5.61c1.65,3,2.41,6.5,2.74,9.42l0.65,0.02    C807.68,284.1,808.17,284.63,808.15,285.27z" opacity=".12"/><path fill="#fff" d="M778.07,283.13l-0.21,6.24l-7.67-0.25c-0.63-0.02-1.12-0.55-1.1-1.18l0.13-3.96    c0.02-0.63,0.55-1.13,1.18-1.11l0.65,0.02c0.77-4.18,2.67-9.48,7.33-12.65c1.88-1.27,3.96-2.1,6.12-2.54    C784.03,267.83,774.77,270.53,778.07,283.13z" opacity=".31"/><path fill="#e58f05" d="M793.65,357.2c0,0-6.53,10.24-13.63,4.35c-7.1-5.88-9.02,9.14-9.02,9.14l11.67,6.92l11.16-10.02    L793.65,357.2z"/><path fill="#ff2b00" d="M843.38,328.3c-5.67,4.76-20.7,30.27-8.15,64.25l-3.55,67.88c0,0-12.35-2.3-28.68-4.44    c-10.99-1.44-23.79-2.81-35.81-3.36c-0.02,0-0.04-0.01-0.06,0c-1.05-0.05-2.1-0.09-3.14-0.13l-0.05,0    c-1.64-0.05-3.27-0.09-4.86-0.11c-2.24-0.03-4.44-0.01-6.56,0.04c-31.8,0.84-31.8,0.84-31.8,0.84s4.44-10.68,7.82-25.53    c1.84-8.08,3.37-17.4,3.69-26.91c0.13-3.88,0.06-7.78-0.27-11.65c-0.1-1.15-0.22-2.31-0.37-3.45c0,0,13.64-18.09-2.52-58.71    c-0.25-0.63,0.15-1.32,0.82-1.4l7.07-0.88l1.52-0.19l6.42-0.58l7.1-0.63l6.33-0.11c0.4-0.05,0.79,0.14,1,0.48    c1.41,2.28,6.73,10.88,12.23,20.95c0.01,0,0.01,0.01,0.01,0.01c1.65,3.03,3.32,6.19,4.91,9.36c0.03,0.06,0.06,0.11,0.08,0.17    c0.56,1.14,1.13,2.29,1.67,3.43c1.64,3.44,3.12,6.79,4.3,9.88c0.85,2.2,3.86,2.44,5.02,0.38c1.08-1.92,2.41-4.25,3.89-6.83    c0.15-0.25,0.3-0.51,0.45-0.78c1.09-1.89,2.26-3.9,3.47-5.99c0.29-0.49,0.59-0.99,0.88-1.5c0.6-1.03,1.23-2.06,1.85-3.11    c0.14-0.24,0.28-0.48,0.43-0.72c1.16-1.94,2.33-3.9,3.52-5.82c0.29-0.48,0.59-0.96,0.88-1.44c2.07-3.34,4.11-6.58,6.04-9.49    c0.25-0.37,0.49-0.73,0.72-1.09c0.58-0.86,1.14-1.68,1.68-2.46c0.22-0.31,0.44-0.63,0.65-0.92c0.3-0.42,0.59-0.83,0.88-1.22    c0.36-0.48,0.7-0.95,1.03-1.38c1.03-1.35,1.97-2.48,2.78-3.33c0.22-0.24,0.54-0.36,0.86-0.35c1.07,0.03,3.71,0.11,7.02,0.44    c5.72,0.54,13.45,1.75,18.58,4.45C843.9,326.74,844.03,327.76,843.38,328.3z"/><line x1="827.05" x2="839.32" y1="517.35" y2="756.57" fill="none" stroke="#231f20" stroke-linecap="round" stroke-miterlimit="10"/><path fill="none" stroke="#231f20" stroke-linecap="round" stroke-miterlimit="10" d="M827.23,511.92c-0.05-0.04-0.1-0.07-0.15-0.11c-14.29-10.81-14.25-22.16-11.43-30.08    c2.23-6.26,6.2-10.37,6.2-10.37"/><path fill="#a3d4e5" d="M666.3,577.16c3.4,39.46,16.42,107.98,16.67,110.02c-13.41-54.38-24.8-113.42-24.75-124.2    c0.04-8.5,17.92-36.41,36.87-63.62C692.93,502.64,662.99,538.79,666.3,577.16z"/><path fill="#fff" d="M767.13,452.63c-1.05-0.05-2.1-0.09-3.14-0.13C765.17,452.5,766.22,452.55,767.13,452.63z" opacity=".31"/><path fill="#e2e2e2" d="M824.57,321.89c-2.63,2.89-5.63,6.45-8.91,10.8c-9.17,12.16-22.24,37.18-27.66,47.83    c-1.06,2.1-4.04,2.13-5.16,0.06l-30.87-57.24l6.33-0.11c0.4-0.05,0.79,0.14,1,0.48c1.83,2.97,10.31,16.65,17.15,30.32    c0.03,0.06,0.06,0.11,0.08,0.17c0.56,1.14,1.13,2.29,1.67,3.43c1.64,3.44,3.12,6.79,4.3,9.88c0.85,2.2,3.86,2.44,5.02,0.38    c1.08-1.92,2.41-4.25,3.89-6.83c0.15-0.25,0.3-0.51,0.45-0.78c1.09-1.89,2.26-3.9,3.47-5.99c0.29-0.49,0.59-1,0.88-1.5    c0.6-1.03,1.23-2.06,1.85-3.11c0.14-0.24,0.28-0.48,0.43-0.72c1.16-1.94,2.33-3.9,3.52-5.82c0.29-0.48,0.59-0.96,0.88-1.44    c2.07-3.34,4.11-6.58,6.04-9.49c0.25-0.37,0.49-0.73,0.72-1.09c0.58-0.86,1.14-1.68,1.68-2.46c0.22-0.31,0.44-0.63,0.65-0.92    c0.3-0.42,0.59-0.83,0.88-1.22c0.35-0.48,0.7-0.95,1.03-1.38c1.03-1.35,1.97-2.48,2.78-3.33c0.22-0.24,0.54-0.36,0.86-0.35    C818.62,321.48,821.26,321.57,824.57,321.89z"/><path d="M843.38,328.3c-5.67,4.76-20.7,30.27-8.15,64.25l-3.55,67.88c0,0-12.35-2.3-28.68-4.44    c31.74-2.96,28.14-62.45,28.14-62.45s-4.06-5.9-4.68-27.64c-0.62-21.81,11.81-37.82,11.81-37.82s-5.83-3.29-14.34-4.1    c-8.51-0.81-11.08,2.58-11.08,2.58l0-0.01c1.45-1.99,2.75-3.61,3.83-4.75c0.22-0.24,0.54-0.36,0.86-0.35    c1.07,0.03,3.71,0.11,7.02,0.44c5.72,0.54,13.45,1.75,18.58,4.45C843.9,326.74,844.03,327.76,843.38,328.3z" opacity=".17"/><path fill="#636363" d="M777.2,749.42c-1.85,1.54-3.82,3-5.88,4.38c-0.28,0.19-0.56,0.37-0.84,0.55c-0.32,0.22-0.65,0.42-0.97,0.62    c-0.05,0.04-0.1,0.06-0.14,0.09c-0.53,0.33-1.06,0.66-1.6,0.98c-0.5,0.3-1.01,0.6-1.53,0.89c-0.48,0.28-0.96,0.55-1.44,0.81    c-0.29,0.16-0.59,0.32-0.88,0.48c-0.49,0.27-0.98,0.52-1.47,0.77c-0.51,0.26-1.03,0.53-1.55,0.79c-0.02,0.01-0.03,0.02-0.06,0.03    c-0.58,0.29-1.17,0.57-1.76,0.85c-0.6,0.29-1.2,0.56-1.8,0.83c-0.6,0.27-1.21,0.54-1.81,0.8c-0.6,0.26-1.21,0.52-1.81,0.77    c-0.6,0.25-1.21,0.5-1.82,0.75l-0.01,0c-0.65,0.26-1.3,0.51-1.95,0.76c-0.41,0.16-0.82,0.31-1.23,0.46    c-0.52,0.2-1.05,0.4-1.58,0.58c-0.53,0.19-1.05,0.38-1.58,0.57c-1.57,0.55-3.13,1.07-4.67,1.56c-0.51,0.16-1.03,0.33-1.54,0.48    c-1.02,0.32-2.02,0.62-3.02,0.9c-0.86,0.25-1.71,0.49-2.56,0.72c-0.42,0.12-0.83,0.23-1.24,0.34c-0.43,0.11-0.86,0.23-1.29,0.33    c-3.16,0.83-6.13,1.52-8.77,2.08c-0.24,0.05-0.48,0.1-0.72,0.16c-0.46,0.1-0.93,0.2-1.38,0.28c-0.51,0.11-1.01,0.21-1.49,0.3    c-1.03,0.2-1.98,0.38-2.86,0.54c-0.32,0.06-0.64,0.11-0.94,0.16c-0.24,0.04-0.47,0.09-0.7,0.13c-0.13,0.02-0.25,0.04-0.37,0.06    c-0.24,0.04-0.48,0.08-0.7,0.12c-0.34,0.05-0.64,0.1-0.93,0.15c-0.15,0.03-0.29,0.05-0.42,0.06c-1.15,0.12-2.27-0.51-2.76-1.57    c-0.12-0.25-0.23-0.51-0.36-0.77c-0.2-0.44-0.41-0.91-0.62-1.38c-0.03-0.07-0.07-0.15-0.09-0.22c-0.12-0.27-0.24-0.55-0.36-0.83    c-0.07-0.15-0.14-0.3-0.2-0.46c-0.12-0.29-0.25-0.59-0.37-0.9c-1.28-3.05-2.58-6.48-3.92-10.23c7.23-1.65,30.81-7.32,50.14-15.45    c7.77-3.27,14.86-6.93,19.92-10.89l0.01,0.01c0.09,0.29,0.18,0.58,0.28,0.85c0.01,0.02,0.01,0.06,0.03,0.08    c0.07,0.22,0.14,0.44,0.21,0.66c0.1,0.32,0.2,0.62,0.3,0.92c0.06,0.19,0.12,0.37,0.18,0.56c0.04,0.1,0.06,0.19,0.09,0.28    c0.04,0.12,0.08,0.24,0.11,0.35c0.08,0.25,0.16,0.48,0.23,0.72c0.08,0.25,0.16,0.48,0.23,0.72c0.11,0.34,0.21,0.66,0.32,0.99    c0.07,0.22,0.15,0.44,0.21,0.66c0.14,0.41,0.27,0.81,0.39,1.2c0.07,0.21,0.14,0.43,0.21,0.63c0.11,0.33,0.21,0.65,0.31,0.96    c0.01,0.02,0.01,0.04,0.02,0.06c0.06,0.19,0.13,0.38,0.18,0.57c0.11,0.32,0.21,0.64,0.31,0.94c0.16,0.47,0.3,0.91,0.43,1.32    c0.04,0.14,0.09,0.28,0.13,0.41c0.03,0.06,0.05,0.13,0.06,0.19c0.02,0.06,0.04,0.13,0.06,0.18c0.01,0.05,0.03,0.09,0.03,0.13    c0.02,0.04,0.03,0.08,0.04,0.12c0.01,0.04,0.03,0.08,0.04,0.12c0.02,0.06,0.04,0.12,0.06,0.18c0.1,0.3,0.18,0.57,0.26,0.81    C778.39,747.56,778.04,748.69,777.2,749.42z"/><path d="M777.2,749.42c-1.85,1.54-3.82,3-5.88,4.38c-0.28,0.19-0.56,0.37-0.84,0.55c-0.32,0.22-0.65,0.42-0.97,0.62    c-0.05,0.04-0.1,0.06-0.14,0.09c-0.53,0.33-1.06,0.66-1.6,0.98c-0.5,0.3-1.01,0.6-1.53,0.89c-0.48,0.28-0.96,0.55-1.44,0.81    c-0.29,0.16-0.59,0.32-0.88,0.48c-0.49,0.27-0.98,0.52-1.47,0.77c-0.51,0.26-1.03,0.53-1.55,0.79c-0.02,0.01-0.03,0.02-0.06,0.03    c-0.58,0.29-1.17,0.57-1.76,0.85c-0.6,0.29-1.2,0.56-1.8,0.83c-0.6,0.27-1.21,0.54-1.81,0.8c-0.6,0.26-1.21,0.52-1.81,0.77    c-0.6,0.25-1.21,0.5-1.82,0.75l-0.01,0c1.04-6.6,1.52-13.68,1.54-21.06c0.28-64.75-34.2-153.29-34.2-153.29l47.7-76.37    l-0.37,11.24c0,0-36.19,51.33-38.04,58.06c-0.05,0.2-0.06,0.53-0.02,0.98c0.01,0.12,0.02,0.24,0.04,0.38    c0.04,0.42,0.12,0.93,0.23,1.53c0.03,0.16,0.06,0.32,0.09,0.5c0.11,0.6,0.25,1.27,0.42,2.01c0.05,0.24,0.11,0.5,0.17,0.76    c0.15,0.67,0.32,1.39,0.51,2.16c0.06,0.24,0.12,0.48,0.18,0.73c0.62,2.45,1.38,5.34,2.27,8.58c0.27,0.97,0.55,1.98,0.84,3.02    c0.03,0.09,0.06,0.2,0.08,0.29c0.23,0.82,0.47,1.65,0.71,2.5c0.55,1.95,1.14,3.98,1.76,6.1c0.22,0.74,0.44,1.49,0.66,2.25    c1.12,3.81,2.32,7.86,3.6,12.08c0.63,2.1,1.28,4.24,1.94,6.42c0.18,0.62,0.37,1.22,0.56,1.84c0.81,2.65,1.65,5.37,2.49,8.11    c0.59,1.93,1.19,3.88,1.81,5.85c0.61,1.97,1.22,3.94,1.84,5.93c0.02,0.04,0.03,0.09,0.04,0.13c0.58,1.86,1.17,3.74,1.75,5.61    c0.02,0.08,0.05,0.16,0.07,0.24c0.47,1.49,0.94,3,1.41,4.5c0.47,1.5,0.94,3,1.42,4.5c0.02,0.05,0.04,0.1,0.05,0.15    c0.2,0.62,0.4,1.25,0.59,1.87c0.11,0.32,0.21,0.65,0.3,0.97c0.63,1.99,1.25,3.98,1.88,5.96c0.16,0.5,0.31,0.99,0.47,1.48    c0.16,0.5,0.31,0.99,0.47,1.48c0.52,1.66,1.05,3.3,1.57,4.93c0.39,1.22,0.77,2.43,1.16,3.63c3.83,12.05,7.46,23.35,10.49,32.73    c0.24,0.75,0.48,1.49,0.71,2.21c0.79,2.44,1.53,4.74,2.22,6.86c0.02,0.07,0.04,0.15,0.07,0.22c0.09,0.29,0.18,0.58,0.28,0.85    c0.01,0.02,0.01,0.06,0.03,0.08c0.04,0.12,0.07,0.23,0.11,0.35c0.04,0.1,0.07,0.21,0.11,0.32c0.1,0.32,0.2,0.62,0.3,0.92    c0.06,0.19,0.12,0.37,0.18,0.56c0.04,0.1,0.06,0.19,0.09,0.28c0.04,0.12,0.08,0.24,0.11,0.35c0.08,0.25,0.16,0.48,0.23,0.72    c0.08,0.25,0.16,0.48,0.23,0.72c0.11,0.34,0.21,0.66,0.32,0.99c0.07,0.22,0.15,0.44,0.21,0.66c0.14,0.41,0.27,0.81,0.39,1.2    c0.07,0.21,0.14,0.43,0.21,0.63c0.11,0.33,0.21,0.65,0.31,0.96c0.01,0.02,0.01,0.04,0.02,0.06c0.06,0.19,0.13,0.38,0.18,0.57    c0.11,0.32,0.21,0.64,0.31,0.94c0.16,0.47,0.3,0.91,0.43,1.32c0.04,0.14,0.09,0.28,0.13,0.41c0.03,0.06,0.05,0.13,0.06,0.19    c0.02,0.06,0.04,0.13,0.06,0.18c0.01,0.05,0.03,0.09,0.03,0.13c0.02,0.04,0.03,0.08,0.04,0.12c0.01,0.04,0.03,0.08,0.04,0.12    c0.02,0.06,0.04,0.12,0.06,0.18c0.1,0.3,0.18,0.57,0.26,0.81C778.39,747.56,778.04,748.69,777.2,749.42z" opacity=".12"/><path fill="#fff" d="M805.96 783.72c-.44-.01-.88-.01-1.3-.02-.43-.01-.85-.01-1.27-.03-2.77-.06-5.25-.17-7.41-.28-.04 0-.08-.01-.11 0-.2-.01-.4-.03-.59-.04l-.05 0c-.17-.01-.35-.02-.52-.02-.03-.01-.06-.01-.09-.01-.61-.04-1.19-.08-1.74-.12-.1 0-.2-.01-.3-.02-.02 0-.03 0-.05-.01-.22-.02-.44-.03-.65-.04-.39-.03-.76-.06-1.12-.09l-.02 0c-.09-.01-.19-.01-.28-.02-.15-.01-.3-.03-.44-.04-.1-.01-.2-.02-.3-.03l.08 0c-2.39-.22-4.32-2-4.74-4.36-.05-.29-.09-.59-.13-.9-.06-.36-.11-.74-.17-1.12-.05-.38-.11-.75-.16-1.15-.11-.78-.22-1.59-.33-2.42-.05-.36-.1-.74-.15-1.12-.05-.48-.12-.97-.19-1.47-.14-1.1-.27-2.25-.41-3.43-.14-1.2-.28-2.44-.42-3.72-2.38-21.47-4.95-53.78-7.33-87.75.41 4.35 5.5 57.48 16.46 87.82C796.08 773.94 800.63 781.76 805.96 783.72zM731.08 770.55c-3.12.82-6.04 1.5-8.65 2.05-.24.05-.48.1-.72.16-.46.1-.93.2-1.38.28-.51.11-1.01.21-1.49.3-1.03.2-1.98.38-2.86.54-.32.06-.64.11-.94.16-.24.05-.47.09-.7.13-.13.02-.25.04-.37.06-.24.04-.48.08-.7.12-.34.05-.64.1-.93.15-.15.03-.29.05-.42.06-1.15.12-2.27-.51-2.76-1.57-.12-.25-.23-.51-.36-.77-.2-.44-.41-.91-.62-1.38-.03-.07-.07-.15-.09-.22-.12-.27-.24-.55-.36-.83-.07-.15-.14-.3-.2-.46-.12-.29-.25-.59-.37-.9-1.28-3.05-2.58-6.48-3.92-10.23-3.33-9.34-6.83-20.67-10.33-33.14C693.48 726.49 712.43 774.05 731.08 770.55zM734.06 769.76c-.11.03-.23.06-.34.09-.42.12-.83.23-1.24.34C733.04 770 733.57 769.86 734.06 769.76z" opacity=".3"/><circle cx="781.3" cy="294.25" r="1.38"/><circle cx="795.2" cy="294.71" r="1.38"/><path fill="none" stroke="#000" stroke-linecap="round" stroke-miterlimit="10" d="M788.23 295.72c0 0 1.68 4.38 2.22 5.76s-2.45 1.06-2.45 1.06M785.4 306.58c0 0 3.56 3.36 7.43-.19"/><path fill="#d6d6d6" d="M716.56,594.98L681.8,561.4c-0.6-0.58-1.03-1.3-1.26-2.09l-9.88-34.44l-42.42-147.94l-6.21-21.65    c-0.23-0.79-0.24-1.63-0.04-2.43l14.69-58.9c0.41-1.63-0.09-3.36-1.31-4.52l-42.96-41.48c-1.21-1.17-2.95-1.61-4.57-1.14    l-21.08,6.05l-0.01,0.01l-36.25,10.39c-1.66,0.48-2.92,1.81-3.3,3.49l-6.42,28.45c-0.74,3.3,2.13,6.29,5.46,5.67l48.08-8.96    c2.42-0.45,4.78,1.04,5.42,3.42l4.82,18.16c0.6,2.25-0.54,4.6-2.68,5.53l-17.46,7.57c0,0-0.03,0.01-0.1,0.05l-27.61,11.98    c-2.95,1.28-3.77,5.08-1.62,7.47l22.55,25.08c0.24,0.27,0.44,0.55,0.61,0.86c0.01,0.03,0.03,0.06,0.04,0.1    c0.16,0.27,0.27,0.56,0.35,0.85c0.01,0.03,0.02,0.05,0.02,0.05L619,583.4c0.22,0.8,0.24,1.63,0.04,2.44l-0.14,0.58l-9.82,39.37    c-0.41,1.63,0.08,3.36,1.3,4.52l37.29,36c1.21,1.17,2.95,1.61,4.57,1.14l49.82-14.29c0.62-0.18,1.18-0.47,1.66-0.86l0-0.01    c0.79-0.63,1.36-1.5,1.61-2.52l12.54-50.29C718.27,597.87,717.77,596.14,716.56,594.98z M686.19,608.17l-4.02,18.04    c-0.37,1.65-1.58,2.97-3.19,3.47l-17.64,5.53c-1.6,0.5-3.36,0.11-4.6-1.03l-13.61-12.51c-1.24-1.14-1.78-2.85-1.41-4.49    l4.03-18.04c0.37-1.65,1.58-2.97,3.19-3.47l17.63-5.53c1.6-0.5,3.36-0.11,4.6,1.03l13.61,12.51    C686.02,604.82,686.56,606.53,686.19,608.17z"/><path fill="#c1c1c1" d="M582.33,366.37l12.55-4.63c2.23-0.82,4.69,0.43,5.34,2.72l55.8,196.72c0.58,2.03-0.49,4.17-2.46,4.92    l-5.73,2.2c-2.19,0.84-4.63-0.33-5.35-2.56l-62.62-194.29C579.19,369.37,580.28,367.13,582.33,366.37z"/><path fill="#ffc0a1" d="M589.15,439.12c-4.49,1.34-17.81,1.1-23.16-9.78c-5.36-10.88,4.09-20.34,4.09-20.34    c4.33,0.44,7.97,2.45,10.92,5.26c0.02,0.01,0.02,0.01,0.02,0.01C589.85,422.69,592.51,438.12,589.15,439.12z"/><path fill="#fcd2c0" d="M589.15,439.12c-4.49,1.34-17.81,1.1-23.16-9.78c-5.36-10.88,4.09-20.34,4.09-20.34    c4.33,0.44,7.97,2.45,10.92,5.26c-0.43-0.18-7.61-3.05-9.62,3.05C569.3,423.61,572.57,441.02,589.15,439.12z"/><path fill="#e5e5e5" d="M574.32 291.9l-48.08 8.96c-3.33.62-6.2-2.37-5.46-5.67l6.42-28.45c.38-1.68 1.64-3.01 3.3-3.49C530.5 263.25 520.07 300.94 574.32 291.9zM548.72 346.26c2.7 9.08 8.01 22.1 9.53 25.76-.17-.31-.37-.6-.61-.86l-22.55-25.08c-2.15-2.39-1.33-6.19 1.62-7.47l27.61-11.98C562.85 327.35 545.68 336.06 548.72 346.26z"/><path fill="#ccc" d="M621.99 352.85c-.2.8-.19 1.64.04 2.43l6.21 21.65-14.5-25.67 6.58-56.79-30.83-40.87-22.74-.75.01-.01 21.08-6.05c1.62-.46 3.36-.03 4.57 1.14l42.96 41.48c1.21 1.17 1.71 2.9 1.31 4.52L621.99 352.85zM717.86 599.5l-12.54 50.29c-.25 1.02-.82 1.89-1.61 2.52l1.71-51.91-34.51-31.02-.25-44.52 9.88 34.44c.23.79.66 1.52 1.26 2.09l34.76 33.58C717.77 596.14 718.27 597.87 717.86 599.5z"/><path fill="#e5e5e5" d="M647.66,666.33l-37.29-36c-1.21-1.17-1.7-2.9-1.3-4.52l9.82-39.37l-1.22,36.89L647.66,666.33z"/><path fill="#fff" d="M755.69,330.27c4.51,4.02,11.29,7.72,15.83,14.38c-5.49-10.07-10.82-18.67-12.23-20.95    c-0.21-0.34-0.6-0.53-1-0.48l-6.33,0.11l-7.1,0.63c0.3-0.15,0.56-0.27,0.75-0.32l-7.16,0.9l-8.58,1.07    c-0.67,0.08-1.07,0.78-0.82,1.4c16.16,40.62,2.52,58.71,2.52,58.71c0.15,1.15,0.27,2.3,0.37,3.45c0.33,3.87,0.4,7.77,0.27,11.65    c-0.04,1.08-0.09,2.16-0.16,3.23c-0.02,0.25-0.03,0.5-0.05,0.75c-0.06,0.95-0.14,1.9-0.22,2.84c-0.01,0.12-0.02,0.23-0.03,0.35    c-0.1,1.11-0.22,2.21-0.35,3.3c-0.01,0.09-0.02,0.18-0.03,0.27c-0.12,1.03-0.26,2.05-0.4,3.07c-0.01,0.1-0.03,0.19-0.04,0.29    c-0.32,2.22-0.69,4.4-1.09,6.51c0,0.01,0,0.02-0.01,0.03c-0.41,2.15-0.84,4.24-1.3,6.26l0,0c-3.38,14.84-7.82,25.53-7.82,25.53    s0,0,31.8-0.84c2.12-0.06,4.32-0.07,6.56-0.04c-20.78-0.94-24.06-8.25-24.24-18.79c-0.03-2.06-0.14-4.47-0.3-7.01    c-0.15-15.49,2.12-38.56,2.12-38.56s3.1-6.9,4.67-22.18c1.48-14.41-5.03-35.66-5.03-35.66S751.19,326.25,755.69,330.27z" opacity=".34"/><path fill="none" stroke="#fff" stroke-linecap="round" stroke-linejoin="round" stroke-miterlimit="10" d="M729.05,327.03c0,0,4.9,10.26,7.09,25.42"/><path fill="#fff" d="M864.44,413.66c-7.49,0.97-15.74,15.64-16.25,16.55c3.94-8.58,7.04-15.93,8.09-19.21l-1.16-1.02    C859.37,413.72,864.44,413.66,864.44,413.66z" opacity=".22"/><path fill="none" stroke="#231f20" stroke-linecap="round" stroke-miterlimit="10" d="M856.27,411.01c0,0,5.11,3.98,9.02,2.1"/><path fill="#ffc176" d="M859.36,476.14l-4.61,16.49l-0.01,0.02c-5.09-1.27-11.18-2.76-16.18-6.53l-0.01,0    c-1.24-0.93-2.41-2-3.49-3.24c-4.47-5.15-6.23-9.4-7.61-12.94c2.13-3.11,4.74-7.64,7.52-12.86c0-0.01,0.01-0.01,0.01-0.01    c0.02-0.02,0.02-0.03,0.02-0.03c1.34,2.86,4.46,8.52,10.81,13.17C851.14,474.09,856.37,475.54,859.36,476.14z"/><path fill="none" stroke="#231f20" stroke-linecap="round" stroke-linejoin="round" stroke-miterlimit="10" d="M725.33,439.88l-4.63,13.38c0,0,33.12-1.21,55.63-0.08"/><path fill="#4f4f4f" d="M779.75,863.5c0,0-4.58,1.53-2.15,9.35c2.44,7.82,19.93,13.44,37.54,4.17c17.61-9.27,42.48-37.99,43.98-40.76    c1.5-2.76-4.22-14.79-7.06-20.17c-2.84-5.38-25.68,17.68-25.68,17.68S797.3,874.01,779.75,863.5z"/><path fill="#ffa300" d="M852.37,822.76c-2.72,6.78-38.19,48.75-53.47,47.62c-15.28-1.13-19.16-6.88-19.16-6.88s1.66-2.69,4.13-6.95    l0.02-0.03c6.3-10.97,17.85-32.31,20.2-45.64c0.32-1.84,2.26-2.93,4.01-2.29c2.64,0.96,6.58,2.16,11.17,2.79    c2.05,0.29,4.23,0.46,6.48,0.46c5.68,0,11.84-1.14,17.59-4.54c1.28-0.76,2.93-0.47,3.87,0.7    C849.85,811.28,854.34,817.85,852.37,822.76z"/><path fill="#e28a17" d="M825.74,811.84c-2.33,7.9-11.9,27.74-19.08,38.47c-9.21,13.78-22.79,6.24-22.79,6.24l0.02-0.03    c6.3-10.97,17.85-32.31,20.2-45.64c0.32-1.84,2.26-2.93,4.01-2.29c2.64,0.96,6.58,2.16,11.17,2.79    C821.31,811.67,823.5,811.84,825.74,811.84z"/><path fill="none" stroke="#fff" stroke-linecap="round" stroke-linejoin="round" stroke-miterlimit="10" stroke-width="3" d="M802.43 817.43c3.72-.87 11.52-1.63 19.59 4.02M799.51 825.43c4.15-.69 11.24-.69 18.51 4.56M794.82 835.9l.01 0c3.99-.69 10.88-.79 18.02 4.05M790.14 845.19c3.89-.67 10.52-.78 17.44 3.71"/><path fill="none" stroke="#fff" stroke-linecap="round" stroke-linejoin="round" stroke-miterlimit="10" d="M830.68,407.44c0,0,0.87,23.15-10.18,37.96"/><line x1="843.38" x2="878.46" y1="328.3" y2="373.32" fill="none" stroke="#231f20" stroke-linecap="round" stroke-miterlimit="10"/><path fill="none" stroke="#231f20" stroke-linecap="round" stroke-miterlimit="10" d="M899.23,417.65c0,0-11.35,24.79-25.6,46.48"/><line x1="633.93" x2="679.95" y1="380.4" y2="356.14" fill="none" stroke="#231f20" stroke-linecap="round" stroke-miterlimit="10"/><path fill="none" stroke="#231f20" stroke-linecap="round" stroke-miterlimit="10" d="M570.07 409c0 0-11.2 11.72-1.69 24M832.94 480.23c0 0 3.32 7.05 21.8 12.41l4.62-16.51"/><polyline fill="none" stroke="#fff" stroke-linecap="round" stroke-linejoin="round" stroke-miterlimit="10" points="793.95 350.46 791.49 343.15 786.03 345.3 780.93 343.36 778.43 351.16"/><path fill="none" stroke="#231f20" stroke-linecap="round" stroke-miterlimit="10" d="M768.21 505.85c0 0-3.5 18.21.4 55.81M723.74 569.1c0 0 3.63 11.24 17.4 60.83M527.21 266.74l-6.42 28.45c0 0 .46 6.6 5.46 5.67s14.98-2.79 14.98-2.79M624.12 278.56l11.25 10.87c0 0 1.97 1.88 1.31 4.52-.66 2.65-5.87 23.52-5.87 23.52M590.1 363.5l4.78-1.76c0 0 3.52-1.09 5.34 2.72 1.82 3.8 18.95 63.83 18.95 63.83M653.85 553.5l2.18 7.67c0 0 1.07 3.37-2.46 4.92M665.84 508.06l14.7 51.25c0 0 .35 1.21 1.26 2.09.91.88 11.24 10.86 11.24 10.86"/><line x1="663.69" x2="695.23" y1="664.18" y2="655.14" fill="none" stroke="#231f20" stroke-linecap="round" stroke-miterlimit="10"/><path fill="none" stroke="#fff" stroke-linecap="round" stroke-miterlimit="10" d="M700.5 838.8c0 0 12.41 10.76 29.59 3.61M779.74 863.5c0 0 8.39 8.66 23.89 6.14"/><path fill="none" stroke="#231f20" stroke-linecap="round" stroke-miterlimit="10" d="M539.93,337.21l-3.22,1.4c0,0-5.2,2.51-1.62,7.47c3.58,4.97,11.51,12.8,11.51,12.8"/><path fill="#d1d1d1" d="M1122.3,234.2h-26.14c-2.13,0-3.86-1.73-3.86-3.86v-4.25c0-2.13,1.73-3.86,3.86-3.86h26.14   c2.13,0,3.86,1.73,3.86,3.86v4.25C1126.16,232.47,1124.43,234.2,1122.3,234.2z"/><text font-family="Poppins-Light" font-size="10" transform="translate(847.016 232.235)">12.00</text><path fill="#ccc" d="M1044.39,858.83H925.12c-1.27,0-2.3-1.03-2.3-2.3l0,0c0-1.27,1.03-2.3,2.3-2.3h119.26   c1.27,0,2.3,1.03,2.3,2.3l0,0C1046.68,857.8,1045.66,858.83,1044.39,858.83z"/><path fill="#ffd18d" d="M1044.13,525.29v59.97c0,1.5-1.22,2.72-2.72,2.72H938.17c-1.5,0-2.72-1.22-2.72-2.72v-59.97H1044.13z"/><path fill="#ffc466" d="M1044.13,525.29v59.97c0,1.5-1.22,2.72-2.72,2.72h-63.37v-62.69H1044.13z"/><path fill="#ffc466" d="M935.45,525.29h42.6l-11.49,22.31c-0.14,0.27-0.41,0.43-0.71,0.43h-43.39c-0.63,0-1.02-0.7-0.68-1.23   L935.45,525.29z"/><path fill="#ffaf45" d="M1054.78,548.03h-64.16c-0.5,0-0.97-0.28-1.2-0.73l-11.37-22.01h65.31c0.48,0,0.93,0.26,1.17,0.68   l11.43,20.04C1056.46,546.91,1055.81,548.03,1054.78,548.03z"/><path fill="none" stroke="#231f20" stroke-linecap="round" stroke-linejoin="round" stroke-miterlimit="10" d="M935.45,525.29l-13.16,21.53c-0.26,0.43,0.01,0.99,0.51,1.04c0.9,0.09,2.6,0.17,5.81,0.17   c6.83,0,21.24,0,21.24,0"/><polyline fill="none" stroke="#231f20" stroke-linecap="round" stroke-linejoin="round" stroke-miterlimit="10" points="974.98 531.24 978.05 525.29 989.41 547.3"/><circle cx="980.02" cy="493.59" r="5.11" fill="none" stroke="#ffc466" stroke-miterlimit="10" stroke-width=".5"/><circle cx="1025.89" cy="498.66" r="3.61" fill="none" stroke="#ffc466" stroke-miterlimit="10" stroke-width=".5"/><polygon fill="#ffc466" points="1000.55 509.18 996.75 499.86 995.88 497.72 998.45 497.4 1012.65 495.65 1011.1 498.51 1006.47 489.06 1005.6 487.29 1007.35 486.4 1022.58 478.62 1021.79 481.45 1019.19 474.04 1019.72 473.72 1025.19 479.35 1026.77 480.97 1024.4 482.18 1009.17 489.96 1010.06 487.3 1014.69 496.75 1015.93 499.27 1013.14 499.62 998.94 501.37 1000.63 498.91 1001.58 508.92"/><polygon fill="#ffc466" points="959.3 505.31 959.39 498.8 961.08 501.26 952.04 500.15 949.25 499.8 950.48 497.28 953.44 491.26 954.32 493.92 944.62 488.96 942 487.62 943.83 486.13 947.84 482.86 948.36 483.19 947.23 488.23 946.44 485.4 956.14 490.36 957.89 491.25 957.03 493.02 954.08 499.04 952.53 496.18 961.57 497.29 964.34 497.64 963.27 499.76 960.34 505.56"/><text transform="translate(964.106 610.476)"><tspan x="0" y="0" fill="#414042" font-family="Poppins-Bold" font-size="11.634">404 </tspan><tspan x="25.8" y="0" fill="#414042" font-family="Poppins-Regular" font-size="11.634">Error</tspan></text><path fill="#ccc" d="M952.69,511.07c-0.14-0.51-0.35-0.99-0.61-1.44c-0.59-1.01-1.44-1.84-2.47-2.4    c-0.4-0.21-0.83-0.39-1.27-0.51c-0.55-0.16-1.12-0.24-1.72-0.24c-0.6,0-1.18,0.08-1.73,0.24c-0.51,0.15-0.99,0.35-1.43,0.61    c-1.02,0.59-1.85,1.45-2.4,2.48c-0.22,0.4-0.39,0.82-0.51,1.26c-0.16,0.55-0.24,1.12-0.24,1.72c0,0.6,0.08,1.18,0.24,1.73    c0.12,0.44,0.3,0.86,0.51,1.26c0.55,1.03,1.39,1.89,2.4,2.47c0.44,0.27,0.92,0.47,1.43,0.62c0.55,0.16,1.13,0.24,1.73,0.24    c0.6,0,1.17-0.08,1.72-0.24c0.45-0.13,0.88-0.3,1.28-0.51c1.02-0.56,1.88-1.4,2.45-2.41c0.27-0.44,0.47-0.92,0.62-1.43    c0.16-0.55,0.24-1.13,0.24-1.73C952.93,512.19,952.85,511.62,952.69,511.07z M946.62,514.95c-1.19,0-2.16-0.96-2.16-2.16    c0-1.19,0.97-2.16,2.16-2.16c1.19,0,2.16,0.97,2.16,2.16C948.78,513.99,947.81,514.95,946.62,514.95z"/><path fill="#ccc" d="M947.98 507.6h-2.74c-.19 0-.35-.16-.35-.35v-2.74c0-.19.16-.35.35-.35h2.74c.19 0 .35.16.35.35v2.74C948.34 507.44 948.18 507.6 947.98 507.6zM951.18 510.03l-1.94-1.94c-.14-.14-.14-.36 0-.5l1.94-1.94c.14-.14.36-.14.5 0l1.94 1.94c.14.14.14.36 0 .5l-1.94 1.94C951.54 510.17 951.32 510.17 951.18 510.03zM941.41 519.8l-1.94-1.94c-.14-.14-.14-.36 0-.5l1.94-1.94c.14-.14.36-.14.5 0l1.94 1.94c.14.14.14.36 0 .5l-1.94 1.94C941.77 519.94 941.54 519.94 941.41 519.8zM941.41 510.16l-1.94-1.94c-.14-.14-.14-.36 0-.5l1.94-1.94c.14-.14.36-.14.5 0l1.94 1.94c.14.14.14.36 0 .5l-1.94 1.94C941.77 510.3 941.54 510.3 941.41 510.16zM951.18 519.93l-1.94-1.94c-.14-.14-.14-.36 0-.5l1.94-1.94c.14-.14.36-.14.5 0l1.94 1.94c.14.14.14.36 0 .5l-1.94 1.94C951.54 520.07 951.32 520.07 951.18 519.93zM954.9 514.52h-2.74c-.19 0-.35-.16-.35-.35v-2.74c0-.19.16-.35.35-.35h2.74c.19 0 .35.16.35.35v2.74C955.25 514.36 955.1 514.52 954.9 514.52zM941.07 514.52h-2.74c-.19 0-.35-.16-.35-.35v-2.74c0-.19.16-.35.35-.35h2.74c.19 0 .35.16.35.35v2.74C941.42 514.36 941.26 514.52 941.07 514.52zM947.98 521.44h-2.74c-.19 0-.35-.16-.35-.35v-2.74c0-.19.16-.35.35-.35h2.74c.19 0 .35.16.35.35v2.74C948.34 521.28 948.18 521.44 947.98 521.44zM996.94 489.12c-.08-.31-.2-.6-.37-.86-.34-.61-.86-1.11-1.48-1.44-.24-.13-.49-.23-.75-.3-.33-.1-.68-.15-1.04-.15s-.7.05-1.03.15c-.3.08-.59.2-.86.36-.61.34-1.11.86-1.44 1.48-.13.24-.23.49-.3.76-.1.33-.15.67-.15 1.03s.05.7.15 1.03c.07.27.17.52.3.76.33.62.83 1.14 1.44 1.48.27.17.56.29.86.37.33.1.67.15 1.03.15s.71-.05 1.04-.15c.27-.07.52-.18.76-.3.61-.34 1.13-.84 1.47-1.45.17-.26.29-.55.37-.86.1-.33.15-.67.15-1.03S997.04 489.45 996.94 489.12zM993.3 491.54c-.76 0-1.39-.62-1.39-1.39 0-.77.63-1.39 1.39-1.39.77 0 1.39.62 1.39 1.39C994.69 490.92 994.07 491.54 993.3 491.54z"/><path fill="#ccc" d="M993.98 487.04h-1.36c-.19 0-.35-.16-.35-.35v-1.36c0-.19.16-.35.35-.35h1.36c.19 0 .35.16.35.35v1.36C994.33 486.88 994.17 487.04 993.98 487.04zM995.94 488.4l-.96-.96c-.14-.14-.14-.36 0-.5l.96-.96c.14-.14.36-.14.5 0l.96.96c.14.14.14.36 0 .5l-.96.96C996.3 488.53 996.07 488.53 995.94 488.4zM990.07 494.26l-.96-.96c-.14-.14-.14-.36 0-.5l.96-.96c.14-.14.36-.14.5 0l.96.96c.14.14.14.36 0 .5l-.96.96C990.44 494.39 990.21 494.39 990.07 494.26zM990.07 488.47l-.96-.96c-.14-.14-.14-.36 0-.5l.96-.96c.14-.14.36-.14.5 0l.96.96c.14.14.14.36 0 .5l-.96.96C990.44 488.61 990.21 488.61 990.07 488.47zM995.94 494.34l-.96-.96c-.14-.14-.14-.36 0-.5l.96-.96c.14-.14.36-.14.5 0l.96.96c.14.14.14.36 0 .5l-.96.96C996.3 494.47 996.07 494.47 995.94 494.34zM998.13 491.19h-1.36c-.19 0-.35-.16-.35-.35v-1.36c0-.19.16-.35.35-.35h1.36c.19 0 .35.16.35.35v1.36C998.48 491.03 998.32 491.19 998.13 491.19zM989.83 491.19h-1.36c-.19 0-.35-.16-.35-.35v-1.36c0-.19.16-.35.35-.35h1.36c.19 0 .35.16.35.35v1.36C990.18 491.03 990.02 491.19 989.83 491.19zM993.98 495.33h-1.36c-.19 0-.35-.16-.35-.35v-1.36c0-.19.16-.35.35-.35h1.36c.19 0 .35.16.35.35v1.36C994.33 495.18 994.17 495.33 993.98 495.33z"/><path fill="#d7ecf2" d="M1435.57 617.83h-344.72c-7.68 0-13.91-6.23-13.91-13.91v-181.1c0-7.68 6.23-13.91 13.91-13.91h344.72c7.68 0 13.91 6.23 13.91 13.91v181.1C1449.48 611.6 1443.25 617.83 1435.57 617.83zM1311.96 385.15h-124.68c-7.68 0-13.91-6.23-13.91-13.91v-80.14c0-7.68 6.23-13.91 13.91-13.91h124.68c7.68 0 13.91 6.23 13.91 13.91v80.14C1325.87 378.92 1319.64 385.15 1311.96 385.15z"/><path fill="#83b8c6" d="M1215.55,324.37c-0.62,0-1.24-0.16-1.82-0.5c-1.7-1.01-2.27-3.2-1.26-4.9     c0.41-0.69,10.33-17.03,35.91-18.25l0.17,0c26.29,0,37.69,17.41,38.16,18.15c1.06,1.67,0.57,3.88-1.1,4.94     c-1.67,1.06-3.88,0.57-4.94-1.1c-0.38-0.59-9.88-14.81-32.04-14.84c-21.69,1.08-29.92,14.6-30,14.74     C1217.97,323.73,1216.77,324.37,1215.55,324.37z"/><path fill="#83b8c6" d="M1229.16,334.75c-0.62,0-1.24-0.16-1.82-0.5c-1.7-1.01-2.27-3.2-1.26-4.9c0.26-0.44,6.6-10.89,22.73-11.67     l0.17,0c16.57,0,23.83,11.09,24.13,11.57c1.06,1.67,0.57,3.88-1.1,4.94c-1.67,1.06-3.88,0.57-4.94-1.1     c-0.21-0.31-5.56-8.21-18-8.25c-12.24,0.62-16.77,8.07-16.82,8.15C1231.58,334.12,1230.38,334.75,1229.16,334.75z"/><path fill="#83b8c6" d="M1239.97,345.74c-0.63,0-1.26-0.16-1.84-0.51c-1.7-1.01-2.25-3.23-1.24-4.94c1.32-2.23,5.38-6.1,12.26-6.43     l0.17,0c7.06,0,11.48,3.98,12.98,6.33c1.06,1.67,0.57,3.88-1.1,4.94c-1.66,1.06-3.88,0.57-4.94-1.1     c-0.05-0.07-2.11-2.98-6.85-3.02c-4.56,0.25-6.32,2.87-6.39,2.98C1242.35,345.12,1241.18,345.74,1239.97,345.74z"/><text fill="#686868" font-family="FredokaOne-Regular" font-size="26.441" transform="translate(1242.423 364.06)">x</text><line x1="1076.95" x2="1449.48" y1="438.95" y2="438.95" fill="none" stroke="#83b8c6" stroke-linecap="round" stroke-miterlimit="10" stroke-width="3"/><circle cx="1426.1" cy="424.45" r="6.52" fill="red"/><circle cx="1394.39" cy="424.45" r="6.52" fill="#eaea00"/><circle cx="1360.21" cy="424.45" r="6.52" fill="#7ad34c"/><path fill="#83b8c6" d="M1159.78,488.52h-8.72c0,0,0,0,0,0c-0.55-2.01-1.38-3.9-2.4-5.67l6.06-6.06c0.54-0.54,0.54-1.42,0-1.96   l-7.63-7.63c-0.54-0.54-1.42-0.54-1.96,0l-6.2,6.2c-1.57-0.82-3.26-1.53-4.99-2v-8.72c0-0.77-0.62-1.39-1.39-1.39h-10.79   c-0.76,0-1.39,0.62-1.39,1.39v8.71c-0.01,0-0.01,0-0.02,0c-2.01,0.59-3.9,1.38-5.63,2.4c0,0-0.01,0.01-0.01,0.01l-6.09-6.09   c-0.54-0.54-1.42-0.54-1.96,0l-7.63,7.63c-0.54,0.54-0.54,1.42,0,1.96l6.25,6.25c0,0,0,0,0,0c-0.87,1.57-1.53,3.23-2.01,4.96   c0,0,0,0,0,0h-8.74c-0.76,0-1.39,0.62-1.39,1.39v10.79c0,0.77,0.62,1.39,1.39,1.39h8.74c0,0.01,0,0.01,0,0.02   c0.47,1.73,1.18,3.38,2,4.95l-6.25,6.25c-0.54,0.54-0.54,1.42,0,1.96l7.63,7.63c0.54,0.54,1.42,0.54,1.96,0l6.11-6.11   c1.73,1.06,3.62,1.85,5.63,2.44c0.01,0,0.01,0,0.02,0v8.7c0,0.77,0.62,1.39,1.39,1.39h10.79c0.77,0,1.39-0.62,1.39-1.39v-8.7   c1.76-0.51,3.45-1.18,5.01-2l6.18,6.18c0.54,0.54,1.42,0.54,1.96,0l7.63-7.63c0.54-0.54,0.54-1.42,0-1.96l-6.09-6.09   c1.06-1.73,1.85-3.61,2.43-5.62c0-0.01,0-0.01,0-0.02h8.72c0.77,0,1.39-0.62,1.39-1.39v-10.79   C1161.16,489.14,1160.54,488.52,1159.78,488.52z M1127.17,507.09c-6.5,0-11.8-5.24-11.8-11.8c0-6.5,5.3-11.8,11.8-11.8   c6.5,0,11.8,5.3,11.8,11.8C1138.97,501.85,1133.67,507.09,1127.17,507.09z"/><text fill="#83b8c6" font-family="FredokaOne-Regular" font-size="58.992" transform="translate(1348.695 584.03)">{ }</text><line x1="1394.52" x2="1378.45" y1="543.41" y2="593.56" fill="none" stroke="#83b8c6" stroke-linecap="round" stroke-miterlimit="10" stroke-width="8"/><line x1="1394.39" x2="1408.87" y1="470.1" y2="470.1" fill="none" stroke="#fff" stroke-linecap="round" stroke-miterlimit="10" stroke-width="6"/><polyline fill="none" stroke="#fff" stroke-linecap="round" stroke-miterlimit="10" stroke-width="6" points="1238.62 470.1 1339.55 470.1 1378.77 470.1"/><line x1="1184.3" x2="1221.16" y1="470.1" y2="470.1" fill="none" stroke="#fff" stroke-linecap="round" stroke-miterlimit="10" stroke-width="6"/><line x1="1315.12" x2="1408.87" y1="495.29" y2="495.29" fill="none" stroke="#fff" stroke-linecap="round" stroke-miterlimit="10" stroke-width="6"/><line x1="1184.3" x2="1298.41" y1="495.29" y2="495.29" fill="none" stroke="#fff" stroke-linecap="round" stroke-miterlimit="10" stroke-width="6"/><line x1="1386.48" x2="1408.87" y1="519.35" y2="519.35" fill="none" stroke="#fff" stroke-linecap="round" stroke-miterlimit="10" stroke-width="6"/><line x1="1218.7" x2="1371.05" y1="519.35" y2="519.35" fill="none" stroke="#fff" stroke-linecap="round" stroke-miterlimit="10" stroke-width="6"/><line x1="1184.3" x2="1202.73" y1="519.35" y2="519.35" fill="none" stroke="#fff" stroke-linecap="round" stroke-miterlimit="10" stroke-width="6"/><line x1="1308.5" x2="1322.98" y1="547.44" y2="547.44" fill="none" stroke="#fff" stroke-linecap="round" stroke-miterlimit="10" stroke-width="6"/><polyline fill="none" stroke="#fff" stroke-linecap="round" stroke-miterlimit="10" stroke-width="6" points="1152.73 547.44 1253.66 547.44 1292.87 547.44"/><line x1="1098.41" x2="1135.27" y1="547.44" y2="547.44" fill="none" stroke="#fff" stroke-linecap="round" stroke-miterlimit="10" stroke-width="6"/><line x1="1229.23" x2="1322.98" y1="572.63" y2="572.63" fill="none" stroke="#fff" stroke-linecap="round" stroke-miterlimit="10" stroke-width="6"/><line x1="1098.41" x2="1212.52" y1="572.63" y2="572.63" fill="none" stroke="#fff" stroke-linecap="round" stroke-miterlimit="10" stroke-width="6"/><line x1="1098.41" x2="1325.87" y1="596.69" y2="596.69" fill="none" stroke="#fff" stroke-linecap="round" stroke-miterlimit="10" stroke-width="6"/><polyline fill="none" stroke="#231f20" stroke-linecap="round" stroke-miterlimit="10" stroke-width="4" points="335.73 881.84 380.95 881.84 422.73 881.84 497.93 881.84 600.26 881.84 667.34 881.84 716.85 881.84 1306.94 881.84 1554.38 881.84 1585.45 881.84"/></svg>